<?xml version="1.0" encoding="UTF-8" standalone="no"?><svg xmlns="http://www.w3.org/2000/svg" xmlns:xlink="http://www.w3.org/1999/xlink" contentStyleType="text/css" height="409px" preserveAspectRatio="none" style="width:2147px;height:409px;background:#FFFFFF;" version="1.1" viewBox="0 0 2147 409" width="2147px" zoomAndPan="magnify"><defs/><g><line style="stroke:#333333;stroke-width:0.5;" x1="10" x2="10" y1="10" y2="378.2717"/><line style="stroke:#333333;stroke-width:0.5;" x1="2135" x2="2135" y1="10" y2="378.2717"/><line style="stroke:#333333;stroke-width:0.5;stroke-dasharray:3.0,5.0;" x1="130" x2="130" y1="10" y2="378.2717"/><line style="stroke:#333333;stroke-width:0.5;stroke-dasharray:3.0,5.0;" x1="180" x2="180" y1="10" y2="378.2717"/><line style="stroke:#333333;stroke-width:0.5;stroke-dasharray:3.0,5.0;" x1="230" x2="230" y1="10" y2="378.2717"/><line style="stroke:#333333;stroke-width:0.5;stroke-dasharray:3.0,5.0;" x1="280" x2="280" y1="10" y2="378.2717"/><line style="stroke:#333333;stroke-width:0.5;stroke-dasharray:3.0,5.0;" x1="330" x2="330" y1="10" y2="378.2717"/><line style="stroke:#333333;stroke-width:0.5;stroke-dasharray:3.0,5.0;" x1="380" x2="380" y1="10" y2="378.2717"/><line style="stroke:#333333;stroke-width:0.5;stroke-dasharray:3.0,5.0;" x1="430" x2="430" y1="10" y2="378.2717"/><line style="stroke:#333333;stroke-width:0.5;stroke-dasharray:3.0,5.0;" x1="480" x2="480" y1="10" y2="378.2717"/><line style="stroke:#333333;stroke-width:0.5;stroke-dasharray:3.0,5.0;" x1="530" x2="530" y1="10" y2="378.2717"/><line style="stroke:#333333;stroke-width:0.5;stroke-dasharray:3.0,5.0;" x1="580" x2="580" y1="10" y2="378.2717"/><line style="stroke:#333333;stroke-width:0.5;stroke-dasharray:3.0,5.0;" x1="630" x2="630" y1="10" y2="378.2717"/><line style="stroke:#333333;stroke-width:0.5;stroke-dasharray:3.0,5.0;" x1="680" x2="680" y1="10" y2="378.2717"/><line style="stroke:#333333;stroke-width:0.5;stroke-dasharray:3.0,5.0;" x1="730" x2="730" y1="10" y2="378.2717"/><line style="stroke:#333333;stroke-width:0.5;stroke-dasharray:3.0,5.0;" x1="780" x2="780" y1="10" y2="378.2717"/><line style="stroke:#333333;stroke-width:0.5;stroke-dasharray:3.0,5.0;" x1="830" x2="830" y1="10" y2="378.2717"/><line style="stroke:#333333;stroke-width:0.5;stroke-dasharray:3.0,5.0;" x1="880" x2="880" y1="10" y2="378.2717"/><line style="stroke:#333333;stroke-width:0.5;stroke-dasharray:3.0,5.0;" x1="930" x2="930" y1="10" y2="378.2717"/><line style="stroke:#333333;stroke-width:0.5;stroke-dasharray:3.0,5.0;" x1="980" x2="980" y1="10" y2="378.2717"/><line style="stroke:#333333;stroke-width:0.5;stroke-dasharray:3.0,5.0;" x1="1030" x2="1030" y1="10" y2="378.2717"/><line style="stroke:#333333;stroke-width:0.5;stroke-dasharray:3.0,5.0;" x1="1080" x2="1080" y1="10" y2="378.2717"/><line style="stroke:#333333;stroke-width:0.5;stroke-dasharray:3.0,5.0;" x1="1130" x2="1130" y1="10" y2="378.2717"/><line style="stroke:#333333;stroke-width:0.5;stroke-dasharray:3.0,5.0;" x1="1180" x2="1180" y1="10" y2="378.2717"/><line style="stroke:#333333;stroke-width:0.5;stroke-dasharray:3.0,5.0;" x1="1230" x2="1230" y1="10" y2="378.2717"/><line style="stroke:#333333;stroke-width:0.5;stroke-dasharray:3.0,5.0;" x1="1280" x2="1280" y1="10" y2="378.2717"/><line style="stroke:#333333;stroke-width:0.5;stroke-dasharray:3.0,5.0;" x1="1330" x2="1330" y1="10" y2="378.2717"/><line style="stroke:#333333;stroke-width:0.5;stroke-dasharray:3.0,5.0;" x1="1380" x2="1380" y1="10" y2="378.2717"/><line style="stroke:#333333;stroke-width:0.5;stroke-dasharray:3.0,5.0;" x1="1430" x2="1430" y1="10" y2="378.2717"/><line style="stroke:#333333;stroke-width:0.5;stroke-dasharray:3.0,5.0;" x1="1480" x2="1480" y1="10" y2="378.2717"/><line style="stroke:#333333;stroke-width:0.5;stroke-dasharray:3.0,5.0;" x1="1530" x2="1530" y1="10" y2="378.2717"/><line style="stroke:#333333;stroke-width:0.5;stroke-dasharray:3.0,5.0;" x1="1580" x2="1580" y1="10" y2="378.2717"/><line style="stroke:#333333;stroke-width:0.5;stroke-dasharray:3.0,5.0;" x1="1630" x2="1630" y1="10" y2="378.2717"/><line style="stroke:#333333;stroke-width:0.5;stroke-dasharray:3.0,5.0;" x1="1680" x2="1680" y1="10" y2="378.2717"/><line style="stroke:#333333;stroke-width:0.5;stroke-dasharray:3.0,5.0;" x1="1730" x2="1730" y1="10" y2="378.2717"/><line style="stroke:#333333;stroke-width:0.5;stroke-dasharray:3.0,5.0;" x1="1780" x2="1780" y1="10" y2="378.2717"/><line style="stroke:#333333;stroke-width:0.5;stroke-dasharray:3.0,5.0;" x1="1830" x2="1830" y1="10" y2="378.2717"/><line style="stroke:#333333;stroke-width:0.5;stroke-dasharray:3.0,5.0;" x1="1880" x2="1880" y1="10" y2="378.2717"/><line style="stroke:#333333;stroke-width:0.5;stroke-dasharray:3.0,5.0;" x1="1930" x2="1930" y1="10" y2="378.2717"/><line style="stroke:#333333;stroke-width:0.5;stroke-dasharray:3.0,5.0;" x1="1980" x2="1980" y1="10" y2="378.2717"/><line style="stroke:#333333;stroke-width:0.5;stroke-dasharray:3.0,5.0;" x1="2030" x2="2030" y1="10" y2="378.2717"/><line style="stroke:#333333;stroke-width:0.5;stroke-dasharray:3.0,5.0;" x1="2080" x2="2080" y1="10" y2="378.2717"/><line style="stroke:#333333;stroke-width:0.5;stroke-dasharray:3.0,5.0;" x1="2130" x2="2130" y1="10" y2="378.2717"/><line style="stroke:#333333;stroke-width:0.5;" x1="10" x2="2135" y1="10" y2="10"/><text fill="#333333" font-family="sans-serif" font-size="14" font-weight="bold" lengthAdjust="spacing" textLength="70" x="15" y="24.9659">userClient</text><line style="stroke:#333333;stroke-width:0.5;" x1="10" x2="86" y1="30.0679" y2="30.0679"/><line style="stroke:#333333;stroke-width:0.5;" x1="86" x2="96" y1="30.0679" y2="10"/><text fill="#333333" font-family="sans-serif" font-size="12" lengthAdjust="spacing" textLength="21" x="20" y="120.7239">Idle</text><text fill="#333333" font-family="sans-serif" font-size="12" lengthAdjust="spacing" textLength="93" x="20" y="100.7239">Sending Request</text><text fill="#333333" font-family="sans-serif" font-size="12" lengthAdjust="spacing" textLength="42" x="20" y="80.7239">Waiting</text><text fill="#333333" font-family="sans-serif" font-size="12" lengthAdjust="spacing" textLength="110" x="20" y="60.7239">Receiving Response</text><text fill="#333333" font-family="sans-serif" font-size="12" lengthAdjust="spacing" textLength="109" x="20" y="40.7239">Request Completed</text><line style="stroke:#006400;stroke-width:2.0;" x1="130" x2="230" y1="115.0679" y2="115.0679"/><line style="stroke:#006400;stroke-width:2.0;" x1="230" x2="430" y1="95.0679" y2="95.0679"/><line style="stroke:#006400;stroke-width:2.0;" x1="430" x2="1480" y1="75.0679" y2="75.0679"/><line style="stroke:#006400;stroke-width:2.0;" x1="1480" x2="2080" y1="55.0679" y2="55.0679"/><line style="stroke:#006400;stroke-width:2.0;" x1="2080" x2="2130" y1="35.0679" y2="35.0679"/><line style="stroke:#006400;stroke-width:2.0;" x1="230" x2="230" y1="95.0679" y2="115.0679"/><line style="stroke:#006400;stroke-width:2.0;" x1="430" x2="430" y1="75.0679" y2="95.0679"/><line style="stroke:#006400;stroke-width:2.0;" x1="1480" x2="1480" y1="55.0679" y2="75.0679"/><line style="stroke:#006400;stroke-width:2.0;" x1="2080" x2="2080" y1="35.0679" y2="55.0679"/><line style="stroke:#333333;stroke-width:0.5;" x1="10" x2="2135" y1="127.0679" y2="127.0679"/><text fill="#333333" font-family="sans-serif" font-size="14" font-weight="bold" lengthAdjust="spacing" textLength="155" x="15" y="142.0339">HighLevelDriverServer</text><line style="stroke:#333333;stroke-width:0.5;" x1="10" x2="171" y1="147.1358" y2="147.1358"/><line style="stroke:#333333;stroke-width:0.5;" x1="171" x2="181" y1="147.1358" y2="127.0679"/><text fill="#333333" font-family="sans-serif" font-size="12" lengthAdjust="spacing" textLength="21" x="24" y="237.7919">Idle</text><text fill="#333333" font-family="sans-serif" font-size="12" lengthAdjust="spacing" textLength="101" x="24" y="217.7919">Receiving Request</text><text fill="#333333" font-family="sans-serif" font-size="12" lengthAdjust="spacing" textLength="61" x="24" y="197.7919">Processing</text><text fill="#333333" font-family="sans-serif" font-size="12" lengthAdjust="spacing" textLength="97" x="24" y="177.7919">Waiting for Timer</text><text fill="#333333" font-family="sans-serif" font-size="12" lengthAdjust="spacing" textLength="82" x="24" y="157.7919">Sending Result</text><line style="stroke:#006400;stroke-width:2.0;" x1="130" x2="430" y1="232.1358" y2="232.1358"/><line style="stroke:#006400;stroke-width:2.0;" x1="430" x2="530" y1="212.1358" y2="212.1358"/><line style="stroke:#006400;stroke-width:2.0;" x1="530" x2="880" y1="192.1358" y2="192.1358"/><line style="stroke:#006400;stroke-width:2.0;" x1="880" x2="1480" y1="172.1358" y2="172.1358"/><line style="stroke:#006400;stroke-width:2.0;" x1="1480" x2="2080" y1="152.1358" y2="152.1358"/><line style="stroke:#006400;stroke-width:2.0;" x1="2080" x2="2130" y1="232.1358" y2="232.1358"/><line style="stroke:#006400;stroke-width:2.0;" x1="430" x2="430" y1="212.1358" y2="232.1358"/><line style="stroke:#006400;stroke-width:2.0;" x1="530" x2="530" y1="192.1358" y2="212.1358"/><line style="stroke:#006400;stroke-width:2.0;" x1="880" x2="880" y1="172.1358" y2="192.1358"/><line style="stroke:#006400;stroke-width:2.0;" x1="1480" x2="1480" y1="152.1358" y2="172.1358"/><line style="stroke:#006400;stroke-width:2.0;" x1="2080" x2="2080" y1="152.1358" y2="232.1358"/><line style="stroke:#333333;stroke-width:0.5;" x1="10" x2="2135" y1="244.1358" y2="244.1358"/><text fill="#333333" font-family="sans-serif" font-size="14" font-weight="bold" lengthAdjust="spacing" textLength="107" x="15" y="259.1018">LowLevelDriver</text><line style="stroke:#333333;stroke-width:0.5;" x1="10" x2="123" y1="264.2038" y2="264.2038"/><line style="stroke:#333333;stroke-width:0.5;" x1="123" x2="133" y1="264.2038" y2="244.1358"/><text fill="#333333" font-family="sans-serif" font-size="12" lengthAdjust="spacing" textLength="21" x="15" y="314.8598">Idle</text><text fill="#333333" font-family="sans-serif" font-size="12" lengthAdjust="spacing" textLength="115" x="15" y="294.8598">Construct Command</text><text fill="#333333" font-family="sans-serif" font-size="12" lengthAdjust="spacing" textLength="85" x="15" y="274.8598">Serial Transmit</text><line style="stroke:#006400;stroke-width:2.0;" x1="130" x2="580" y1="309.2038" y2="309.2038"/><line style="stroke:#006400;stroke-width:2.0;" x1="580" x2="880" y1="289.2038" y2="289.2038"/><line style="stroke:#006400;stroke-width:2.0;" x1="880" x2="1480" y1="269.2038" y2="269.2038"/><line style="stroke:#006400;stroke-width:2.0;" x1="1480" x2="2130" y1="309.2038" y2="309.2038"/><line style="stroke:#006400;stroke-width:2.0;" x1="580" x2="580" y1="289.2038" y2="309.2038"/><line style="stroke:#006400;stroke-width:2.0;" x1="880" x2="880" y1="269.2038" y2="289.2038"/><line style="stroke:#006400;stroke-width:2.0;" x1="1480" x2="1480" y1="269.2038" y2="309.2038"/><line style="stroke:#333333;stroke-width:0.5;" x1="10" x2="2135" y1="321.2038" y2="321.2038"/><text fill="#333333" font-family="sans-serif" font-size="14" font-weight="bold" lengthAdjust="spacing" textLength="56" x="15" y="336.1697">Arduino</text><line style="stroke:#333333;stroke-width:0.5;" x1="10" x2="72" y1="341.2717" y2="341.2717"/><line style="stroke:#333333;stroke-width:0.5;" x1="72" x2="82" y1="341.2717" y2="321.2038"/><text fill="#333333" font-family="sans-serif" font-size="12" lengthAdjust="spacing" textLength="19" x="101" y="371.9277">low</text><text fill="#333333" font-family="sans-serif" font-size="12" lengthAdjust="spacing" textLength="24" x="101" y="351.9277">high</text><line style="stroke:#006400;stroke-width:2.0;" x1="130" x2="980" y1="366.2717" y2="366.2717"/><line style="stroke:#006400;stroke-width:2.0;" x1="980" x2="1480" y1="346.2717" y2="346.2717"/><line style="stroke:#006400;stroke-width:2.0;" x1="1480" x2="2130" y1="366.2717" y2="366.2717"/><line style="stroke:#006400;stroke-width:2.0;" x1="980" x2="980" y1="346.2717" y2="366.2717"/><line style="stroke:#006400;stroke-width:2.0;" x1="1480" x2="1480" y1="346.2717" y2="366.2717"/><line style="stroke:#333333;stroke-width:2.0;" x1="130" x2="130" y1="378.2717" y2="383.2717"/><line style="stroke:#333333;stroke-width:2.0;" x1="180" x2="180" y1="378.2717" y2="383.2717"/><line style="stroke:#333333;stroke-width:2.0;" x1="230" x2="230" y1="378.2717" y2="383.2717"/><line style="stroke:#333333;stroke-width:2.0;" x1="280" x2="280" y1="378.2717" y2="383.2717"/><line style="stroke:#333333;stroke-width:2.0;" x1="330" x2="330" y1="378.2717" y2="383.2717"/><line style="stroke:#333333;stroke-width:2.0;" x1="380" x2="380" y1="378.2717" y2="383.2717"/><line style="stroke:#333333;stroke-width:2.0;" x1="430" x2="430" y1="378.2717" y2="383.2717"/><line style="stroke:#333333;stroke-width:2.0;" x1="480" x2="480" y1="378.2717" y2="383.2717"/><line style="stroke:#333333;stroke-width:2.0;" x1="530" x2="530" y1="378.2717" y2="383.2717"/><line style="stroke:#333333;stroke-width:2.0;" x1="580" x2="580" y1="378.2717" y2="383.2717"/><line style="stroke:#333333;stroke-width:2.0;" x1="630" x2="630" y1="378.2717" y2="383.2717"/><line style="stroke:#333333;stroke-width:2.0;" x1="680" x2="680" y1="378.2717" y2="383.2717"/><line style="stroke:#333333;stroke-width:2.0;" x1="730" x2="730" y1="378.2717" y2="383.2717"/><line style="stroke:#333333;stroke-width:2.0;" x1="780" x2="780" y1="378.2717" y2="383.2717"/><line style="stroke:#333333;stroke-width:2.0;" x1="830" x2="830" y1="378.2717" y2="383.2717"/><line style="stroke:#333333;stroke-width:2.0;" x1="880" x2="880" y1="378.2717" y2="383.2717"/><line style="stroke:#333333;stroke-width:2.0;" x1="930" x2="930" y1="378.2717" y2="383.2717"/><line style="stroke:#333333;stroke-width:2.0;" x1="980" x2="980" y1="378.2717" y2="383.2717"/><line style="stroke:#333333;stroke-width:2.0;" x1="1030" x2="1030" y1="378.2717" y2="383.2717"/><line style="stroke:#333333;stroke-width:2.0;" x1="1080" x2="1080" y1="378.2717" y2="383.2717"/><line style="stroke:#333333;stroke-width:2.0;" x1="1130" x2="1130" y1="378.2717" y2="383.2717"/><line style="stroke:#333333;stroke-width:2.0;" x1="1180" x2="1180" y1="378.2717" y2="383.2717"/><line style="stroke:#333333;stroke-width:2.0;" x1="1230" x2="1230" y1="378.2717" y2="383.2717"/><line style="stroke:#333333;stroke-width:2.0;" x1="1280" x2="1280" y1="378.2717" y2="383.2717"/><line style="stroke:#333333;stroke-width:2.0;" x1="1330" x2="1330" y1="378.2717" y2="383.2717"/><line style="stroke:#333333;stroke-width:2.0;" x1="1380" x2="1380" y1="378.2717" y2="383.2717"/><line style="stroke:#333333;stroke-width:2.0;" x1="1430" x2="1430" y1="378.2717" y2="383.2717"/><line style="stroke:#333333;stroke-width:2.0;" x1="1480" x2="1480" y1="378.2717" y2="383.2717"/><line style="stroke:#333333;stroke-width:2.0;" x1="1530" x2="1530" y1="378.2717" y2="383.2717"/><line style="stroke:#333333;stroke-width:2.0;" x1="1580" x2="1580" y1="378.2717" y2="383.2717"/><line style="stroke:#333333;stroke-width:2.0;" x1="1630" x2="1630" y1="378.2717" y2="383.2717"/><line style="stroke:#333333;stroke-width:2.0;" x1="1680" x2="1680" y1="378.2717" y2="383.2717"/><line style="stroke:#333333;stroke-width:2.0;" x1="1730" x2="1730" y1="378.2717" y2="383.2717"/><line style="stroke:#333333;stroke-width:2.0;" x1="1780" x2="1780" y1="378.2717" y2="383.2717"/><line style="stroke:#333333;stroke-width:2.0;" x1="1830" x2="1830" y1="378.2717" y2="383.2717"/><line style="stroke:#333333;stroke-width:2.0;" x1="1880" x2="1880" y1="378.2717" y2="383.2717"/><line style="stroke:#333333;stroke-width:2.0;" x1="1930" x2="1930" y1="378.2717" y2="383.2717"/><line style="stroke:#333333;stroke-width:2.0;" x1="1980" x2="1980" y1="378.2717" y2="383.2717"/><line style="stroke:#333333;stroke-width:2.0;" x1="2030" x2="2030" y1="378.2717" y2="383.2717"/><line style="stroke:#333333;stroke-width:2.0;" x1="2080" x2="2080" y1="378.2717" y2="383.2717"/><line style="stroke:#333333;stroke-width:2.0;" x1="2130" x2="2130" y1="378.2717" y2="383.2717"/><line style="stroke:#333333;stroke-width:2.0;" x1="130" x2="2130" y1="378.2717" y2="378.2717"/><text fill="#333333" font-family="sans-serif" font-size="11" lengthAdjust="spacing" textLength="6" x="127" y="396.0306">0</text><text fill="#333333" font-family="sans-serif" font-size="11" lengthAdjust="spacing" textLength="12" x="224" y="396.0306">10</text><text fill="#333333" font-family="sans-serif" font-size="11" lengthAdjust="spacing" textLength="12" x="424" y="396.0306">30</text><text fill="#333333" font-family="sans-serif" font-size="11" lengthAdjust="spacing" textLength="12" x="524" y="396.0306">40</text><text fill="#333333" font-family="sans-serif" font-size="11" lengthAdjust="spacing" textLength="12" x="574" y="396.0306">45</text><text fill="#333333" font-family="sans-serif" font-size="11" lengthAdjust="spacing" textLength="12" x="874" y="396.0306">75</text><text fill="#333333" font-family="sans-serif" font-size="11" lengthAdjust="spacing" textLength="12" x="974" y="396.0306">85</text><text fill="#333333" font-family="sans-serif" font-size="11" lengthAdjust="spacing" textLength="18" x="1471" y="396.0306">135</text><text fill="#333333" font-family="sans-serif" font-size="11" lengthAdjust="spacing" textLength="18" x="1671" y="396.0306">155</text><text fill="#333333" font-family="sans-serif" font-size="11" lengthAdjust="spacing" textLength="18" x="2071" y="396.0306">195</text><line style="stroke:#00008B;stroke-width:1.5;" x1="430" x2="430" y1="95.0679" y2="212.1358"/><polygon fill="#00008B" points="427.2638,204.6183,432.7362,204.6183,430,212.1358" style="stroke:#00008B;stroke-width:1.5;"/><text fill="#00008B" font-family="Serif" font-size="14" lengthAdjust="spacing" textLength="52" x="430" y="200.5163">Request</text><line style="stroke:#00008B;stroke-width:1.5;" x1="580" x2="580" y1="192.1358" y2="289.2038"/><polygon fill="#00008B" points="577.2638,281.6862,582.7362,281.6862,580,289.2038" style="stroke:#00008B;stroke-width:1.5;"/><text fill="#00008B" font-family="Serif" font-size="14" lengthAdjust="spacing" textLength="52" x="580" y="277.5842">Request</text><line style="stroke:#00008B;stroke-width:1.5;" x1="980" x2="980" y1="269.2038" y2="346.2717"/><polygon fill="#00008B" points="977.2638,338.7541,982.7362,338.7541,980,346.2717" style="stroke:#00008B;stroke-width:1.5;"/><text fill="#00008B" font-family="Serif" font-size="14" lengthAdjust="spacing" textLength="135" x="980" y="334.6521">"sending command"</text><line style="stroke:#00008B;stroke-width:1.5;" x1="1680" x2="1780" y1="152.1358" y2="55.0679"/><polygon fill="#00008B" points="1776.5116,62.2673,1772.7,58.3406,1780,55.0679" style="stroke:#00008B;stroke-width:1.5;"/><text fill="#00008B" font-family="Serif" font-size="14" lengthAdjust="spacing" textLength="55" x="1774.6058" y="75.2699">Respone</text><!--MD5=[d0c7a380596aee6f7f255c68d79ebe35]
@startuml
robust   "userClient"    as CL
robust   "HighLevelDriverServer"       as HL
robust  "LowLevelDriver"              as LL
robust "Arduino"       as A0

@0
CL is Idle
HL is Idle
LL is Idle
A0 is low


@+10
CL is "Sending Request"


@+20
CL -> HL: Request
CL is Waiting
HL is "Receiving Request"

@+10

HL is Processing


@+5
HL -> LL: Request
LL is "Construct Command"

@+30
HL is "Waiting for Timer"
LL is "Serial Transmit"

@+10
LL -> A0: "sending command" 
A0 is high

@+50
LL is "Idle"
A0 is low


HL is "Sending Result"
CL is "Receiving Response"

@+20
HL -> CL@+10: Respone

@+40

HL is Idle

CL is "Request Completed"




@enduml

PlantUML version 1.2022.7(Mon Aug 22 19:01:30 CEST 2022)
(GPL source distribution)
Java Runtime: OpenJDK Runtime Environment
JVM: OpenJDK 64-Bit Server VM
Default Encoding: UTF-8
Language: en
Country: US
--></g></svg>